<?xml version="1.0" encoding="utf-8"?>
<!-- Generator: Adobe Illustrator 24.3.0, SVG Export Plug-In . SVG Version: 6.00 Build 0)  -->
<svg version="1.1" id="Layer_1" xmlns="http://www.w3.org/2000/svg" xmlns:xlink="http://www.w3.org/1999/xlink" x="0px" y="0px"
	 viewBox="0 0 309.3 309.3" style="enable-background:new 0 0 309.3 309.3;" xml:space="preserve">
<style type="text/css">
	.st0{fill:#2B255F;}
	.st1{fill:#E2574C;}
	.st2{fill:#B53629;}
	.st3{display:none;fill:#FFFFFF;}
</style>
<g>
	<path class="st0" d="M38.7,0h164.2l87,86.7v203.2c0,10.7-8.7,19.3-19.3,19.3H38.7c-10.7,0-19.3-8.6-19.3-19.3V19.3
		C19.3,8.6,28,0,38.7,0z"/>
	<path class="st1" d="M289.9,289.9V86.7L202.9,0H38.7c-6.1,0-11.6,2.8-15.1,7.3l262,295C288.3,298.9,289.9,294.6,289.9,289.9z"/>
	<path class="st2" d="M289.7,87h-67.4c-10.7,0-19.3-8.7-19.3-19.3V0.2L289.7,87z"/>
	<path class="st3" d="M241.4,146.9c4.5,0,6.7-3.9,6.7-7.7c0-3.9-2.3-7.7-6.7-7.7h-25.5c-5,0-7.8,4.1-7.8,8.7v62.6
		c0,5.6,3.2,8.7,7.5,8.7c4.3,0,7.5-3.1,7.5-8.7v-17.2h15.4c4.8,0,7.2-3.9,7.2-7.8c0-3.8-2.4-7.6-7.2-7.6h-15.4v-23.4
		C223.1,146.9,241.4,146.9,241.4,146.9z M155.2,131.5h-18.6c-5.1,0-8.7,3.5-8.7,8.6v62.7c0,6.4,5.2,8.4,8.9,8.4h19.6
		c23.2,0,38.5-15.2,38.5-38.8C194.8,147.7,180.4,131.5,155.2,131.5z M156.1,195.9h-11.4V147H155c15.5,0,22.3,10.4,22.3,24.8
		C177.3,185.2,170.6,195.9,156.1,195.9z M87.8,131.5H69.4c-5.2,0-8.1,3.4-8.1,8.7v62.6c0,5.6,3.3,8.7,7.8,8.7s7.8-3.1,7.8-8.7v-18.3
		h11.6c14.3,0,26.1-10.1,26.1-26.4C114.5,142.2,103.2,131.5,87.8,131.5z M87.5,169.9H76.9v-23.6h10.6c6.6,0,10.8,5.1,10.8,11.8
		C98.3,164.8,94.1,169.9,87.5,169.9z"/>
</g>
</svg>
